<?xml version="1.0" encoding="UTF-8"?>
<svg id="Codility" xmlns="http://www.w3.org/2000/svg" viewBox="0 0 1677.59 858.41">
  <path d="M959.38,342.88c1.43.31,3.97,2.57,4.65,4.08l31.21,83.52,2.9,2.2,3.77-1.31,32.5-85.97c2.96-3.38,25.12-3.39,29.93-2.5,2.42.45,5.45,3.11,5.69,5.63l-74.1,198.38c-2.44,2.34-28.28,2.27-31.9.74-2.85-1.21-3.05-5.45-2.55-8.2,2.61-14.4,18.77-38.44,17.17-52.54-13.26-33.34-23.83-69.04-37.71-101.99-1.47-3.5-2.9-9.68-6.24-11.23-3.14-1.45-29.42-1.58-34.13-.98-2.13.27-3.79.47-4.95,2.54l-.55,70.34c4.71,21.3,37.14,6.6,46.71,13.25,1.8,1.25,8.39,18.13,8.92,21.04.94,5.14,1.02,8.05-5.02,8.83-10.81,1.4-45.33,1.26-56.2-.16-15.21-1.99-28.74-15.74-31.87-30.53l-.38-79.37c-2.14-9.69-14.84-2.13-17.86-8.37-1.35-2.79-1.15-22.01.54-24.39,4.23-5.97,14.73.51,17.03-6.7,2.73-9.18-2.22-53.18,1.69-58.13,2.73-3.45,28.25-1.5,33.87-1.12.56.34,2.5,3.39,2.5,3.74v57.32l1.88,1.87h62.5Z"/>
  <path d="M604.38,279.33c.34.09,3.45,3.16,3.73,3.76v203.06c-1.28,1.79-2.71,3.31-5.01,3.73-4.2.78-28.36.61-30.63-1.8-1.51-1.6-1.25-3.69-1.22-5.65l-1.83.04c-35.56,20.46-81.72,9.56-103.68-25.07-38.73-61.06,19.47-136.24,88.29-115.43,2.83.86,17.23,8.64,17.23,4.01v-64.8l1.88-1.87c8.24,1.46,24.09-1.98,31.25,0ZM523.45,374.36c-46.77,6.81-42.55,91.87,14.57,84.3,46.42-6.15,42.78-92.66-14.57-84.3Z"/>
  <path d="M209.72,287.15c17.37-1.95,35.33.1,51.51,6.53,4.76,1.89,23.6,10.93,23.75,16.15.06,2.19-19.07,27.26-20.81,27.87-5.9,2.08-11.59-5.03-17.06-7.52-28.45-12.99-58.82-.76-73.57,25.58-30.05,53.65,17.61,129.18,79.36,95.31,7.49-4.11,7.35-10.37,15.81-1.61,2.24,2.32,14.49,17.58,15.38,19.63,2.98,6.91-6.34,10.98-11.56,14-65.43,37.91-145.88-10.8-151.26-83.53-3.87-52.28,34.6-106.37,88.46-112.41Z"/>
  <path d="M359.76,338.26c66.17-2.76,106.26,74.28,63.95,126.08-33.29,40.77-98.32,37.18-125.96-7.69-30.56-49.59,2.68-115.92,62.01-118.4ZM355.95,374.36c-42.96,6.26-42.26,79.95,2.19,84.4,60.43,6.05,59.05-93.31-2.19-84.4Z"/>
  <path d="M708.75,281.2c1.31-4.08,26.16-3.72,30.55-3.04,4.1.64,6.24,2.8,6.88,6.85l-.49,199.98-2.56,3.68h-32.5l-1.88-1.87v-205.61Z"/>
  <path d="M644.64,343.15c5.98-1.37,31.33-2.66,32.59,5.61l.32,130.62c-.16,2.56-.74,8.25-3.34,9.13-1.88.63-28.32.7-31.08.17-1-.19-1.91-.36-2.56-1.24l-1.17-2.34-.67-134.14c.13-3.88,2.03-6.92,5.92-7.81Z"/>
  <path d="M780.3,487.14l-1.6-6.5.33-131.86c.65-2.46,1.42-4.15,4.09-4.64,3.25-.6,27.07-.53,29.75.25,1.22.36,2.12,1.17,2.76,2.24l.34,137.42c-.37,1.12-.74,2.61-1.56,3.42-2.07,2.04-31.76,2.02-34.11-.33Z"/>
  <path d="M1049.38,488.68c-7.83-1.34,1.79-23.91,4.52-27.89,1.12-1.64,2.57-2.55,4.5-2.99l98.54-.33c3.33.06,7.38.64,8.07,4.42.58,3.2.57,19.23-.03,22.4-.26,1.37-2.16,4.39-3.09,4.39h-112.5Z"/>
  <path d="M812.05,282.27c16.13,15.68-1.89,42.62-22.91,33.43-9.32-4.07-12.61-12.38-11.7-22.1,1.56-16.58,23.11-22.49,34.61-11.32Z"/>
  <path d="M653.42,277.14c31.74-5.43,33.44,40.21,4.49,40.37-24.35.13-27.25-36.48-4.49-40.37Z"/>
</svg>