<?xml version="1.0" encoding="UTF-8"?>
<svg id="CRWD" xmlns="http://www.w3.org/2000/svg" viewBox="0 0 1280 800">
  <path d="M491.4,385.7l15.61,48.61,16.37-48.69,17.36,1.3,16.83,47.36,15.62-48.59h24.98c.63,0,2.06,2.09,1.94,3.13l-32.74,87.63-17.91-1.03-17.48-46.12-17.46,46.14-18.18.65-32.46-87.28c-.12-1.04,1.29-3.11,1.92-3.11h25.6Z"/>
  <path d="M406.21,384.8c66.83-8.08,78.96,81.01,19.31,92.79-70.08,13.84-84.25-84.94-19.31-92.79ZM408.65,410.91c-23.66,4.37-19.66,43.78,7.02,41.99,28.6-1.92,25.68-48.03-7.02-41.99Z"/>
  <path d="M610.04,476.66v-90.97h46.83c44.7,0,58.22,66.77,19.76,85.76-2.13,1.05-13.27,5.2-14.77,5.2h-51.82ZM637.51,452.99h19.36c4.04,0,11.17-8.49,12.26-12.69,6.21-23.9-9.4-34.12-31.61-30.92v43.61Z"/>
  <path d="M323.44,385.7c31.64,3.34,43.59,39.6,14.37,55.45,3.63,1.96,6.6,9,9.26,10.69,3,1.91,7.28.3,8.88,2.36,1.85,2.39,5.55,19.09,1.5,21.62-11.03,6.91-24,1.11-31.52-7.86-3.07-3.66-15.63-26.94-21.84-22.43-.27.97,1.25,1.5,1.25,1.86v29.28h-28.72v-90.97c14.97,1.15,32.13-1.55,46.83,0ZM304.09,409.39c2.81,4.78.6,10.21.49,14.86-.1,4.02,2.93,1.31,5.09,1.3,7.8-.03,18.02,1.37,15.4-10.29-1.98-8.81-14.57-5.22-20.97-5.87Z"/>
  <path d="M924.11,385.7c5.5.58,14.7,3.71,19.28,6.93,17.15,12.08,15.33,40.74-4.92,47.92l18.63,33.13-1.77,2.98h-27.47l-16.22-29.92-6.88-1.22c-.62.44,1.25,1.59,1.25,1.86v29.28h-28.72v-90.97c14.97,1.15,32.13-1.55,46.83,0ZM924.43,424.04c1.47-1.47,1.78-5.61,1.52-7.69-1.24-10.04-14.39-6.38-21.2-6.96l1.24,17.44c4.42.09,15.26.39,18.44-2.79Z"/>
  <path d="M1042.12,385.7v31.15l25-30.5c2.85-1.19,21.68-1.17,25.64-.71,3.09.36,5.34,1.1,4.02,4.82l-29.54,35.93,32.23,47.3-1.77,2.98h-28.72c-6.93-6.61-14.66-26.01-21.21-31.19-2.24-1.77-5.64,2.8-5.64,3.15v28.04h-28.72v-90.97h28.72Z"/>
  <polygon points="1174.49 385.7 1174.49 409.37 1134.53 409.37 1134.53 420.59 1164.5 420.59 1164.5 443.02 1134.53 443.02 1134.53 452.99 1174.49 452.99 1174.49 476.66 1105.8 476.66 1105.8 385.7 1174.49 385.7"/>
  <path d="M737.53,408.24c-5.04,7.5,19.12,12.32,23.59,14.24,15.61,6.69,26.03,18.64,19,36.36-9.82,24.78-52.97,23.2-70.77,7.81-2.86-2.47-5.78-4.47-3.79-8.66.39-.81,10.61-13.33,11.45-13.61,3.54-1.17,9.43,4.65,13.29,6.35,6.82,3,14.61,4.98,21.56,1.1.82-1.14.82-2.96.39-4.27-1.01-3.09-21.16-7.57-26.13-10.1-8.5-4.33-16.77-12.54-17.48-22.43-2.68-37.2,52.72-38.51,72.4-17.33.83,2.71-11.65,15.2-14.46,17.78-4.43-4.3-25.15-13.05-29.05-7.24Z"/>
  <path d="M868.54,385.7v23.68h-27.47c-.33.91,1.25,1.49,1.25,1.87v65.42h-28.72v-67.29h-26.22v-23.68h81.17Z"/>
  <path d="M265.14,405.42l-16.79,13.84c-11.03-9.17-26.83-13.99-37.32-1.19-14.37,17.54,4.3,42.5,27.17,32.1,3.25-1.48,6.92-6.19,10.02-5.75,1.52.22,15.97,12.27,16.56,13.58.75,1.64.77,2.03,0,3.68-2.05,4.42-16.9,13.67-21.87,14.49-5.4.89-14.65-8.39-19.61-11.74-14.98-10.13-30.51-19.49-45.37-29.77-3.07-35.17,32.23-57.87,64.71-48.09,5.19,1.56,26.31,12.31,22.49,18.85Z"/>
  <path d="M276.61,533.98l-23.71-24.31c-25.04-19.52-54.18-32.73-80.33-50.68-32.09-22.03-69.84-52.07-80.76-90.74,26.97,27.53,54.66,51.93,86.5,73.8,36.74,25.23,83.07,46.52,98.3,91.93Z"/>
  <rect x="969.69" y="385.7" width="28.72" height="90.97"/>
  <path d="M280.35,560.15l-14.39-13.67c-22.88-19.43-51.68-28.99-77.6-43.43-31.14-17.36-69.43-42.62-81.57-77.47,16.9,15.89,34.43,31.21,53.8,44.13,20.1,13.4,42.07,23.48,62.7,35.87,22.69,13.63,46.18,29.45,57.06,54.57Z"/>
</svg>