<?xml version="1.0" encoding="UTF-8"?>
<svg id="Domino_s" data-name="Domino&amp;apos;s" xmlns="http://www.w3.org/2000/svg" viewBox="0 0 1453.73 858.41">
  <path d="M467.62,369.92c23.49,23.63,25.35,67.37,5.5,93.76-29.14,38.74-84.64,25.27-126.54,27.51-1.41-.67-2.29-1.87-2.12-3.5l.15-136.7c.67-1.41,1.87-2.29,3.51-2.12,39.05,2.61,88.83-9.79,119.5,21.06ZM388.13,454.16h21.96c37.38,0,45.85-58.07,9.75-66.61-7.36-1.74-23.15-2.45-30.62-1.53-.6.07-1.3-.02-1.7.55-.02,20.47-.81,41.21-.26,61.71.03,1.06.08,5.65.86,5.88Z"/>
  <path d="M653.65,399l8.27-6.09c17.87-10.79,47.19-12.07,56.21,10.58,16.22-23.34,62.85-27.24,67.8,7.11l.09,77.09c.12,2.11-1.09,3.39-3.1,3.65-9.71,1.27-22.14-1.03-32.16,0l-2.54-1.4-.67-61.25c-2.67-14.35-21.87-10.38-27.9-.59-.14,18.73-.19,37.47-.14,56.2,0,2.3,1.3,3.94-.68,6.3l-36.07.18-1.55-3.1v-60.22c-3.99-12.69-21.3-8.77-27.45.08l-.63,62.84c-.55.87-2.17.88-3.12.96-10.45.87-22.39-.46-32.97-.3l-1.43-1.94v-98.56c.8-2.59,3.94-2.65,6.2-2.81,6.94-.5,19.68-.66,26.48.03,1.24.13,5.36,1.14,5.36,2.52v8.73Z"/>
  <path d="M237.82,251.2l68.9,68.87c3.52,5.22,2.77,8.13-1.08,12.8l-75.18,74.99-82.54-82.3,76.34-76.86c4.96-3.64,9.81-1.56,13.56,2.5ZM215.73,310.82c-18.2,17.49,6.55,47.18,27.1,30.75,22.14-17.69-6.88-50.19-27.1-30.75Z"/>
  <path d="M223.62,414.39c-20.61,24.77-49.18,46.54-70.57,71.03-6.5,6.07-9.73,9.51-17.79,2.54l-68.96-68.98c-2.33-2.68-2.92-6.34-1.82-9.69,24.61-26.66,51.32-51.56,76.69-77.58l1.35-.79,82.3,82.14c.54.7-.88.93-1.21,1.32ZM97.47,398.62c-17.84,19.88,12.18,47.26,30.52,27.98,18.78-19.74-12.35-48.22-30.52-27.98ZM187.74,427.5c9.88-10.47,5.83-28.79-7.94-33.59-16.73-5.84-32.34,10.21-26.23,26.79,5.07,13.75,24.08,17.51,34.18,6.81Z"/>
  <path d="M895.23,399.56c3.3-2.32,6.12-5.46,9.63-7.54,23.12-13.64,58.45-7.81,60.75,23.59,1.7,23.13-1.29,48.19.04,71.52l-1.73,3.9c-10.47-.16-22.55,1.2-32.96.31-3.64-.31-3.92-1.76-4.22-5.35-1.52-18.18,1.3-38.35-.11-56.74-3.53-14.05-25.02-12.09-31.28-1.14l-.1,59.57-.72,2.94c-.88.64-1.91.63-2.94.72-10.43.88-22.45-.47-32.97-.3l-.84-.85-.73-99.79c.2-.69,1.28-1.78,1.97-1.97,1.22-.34,6.07-.62,7.74-.71,6.44-.33,16.86-.6,23.11.03,1.24.13,5.36,1.14,5.36,2.52v9.29Z"/>
  <path d="M544.85,385.09c37.68-3.12,67.13,33.37,56.71,69.64-10.76,37.45-57.61,52.28-87.58,26.74-37.42-31.88-17.76-92.35,30.87-96.38ZM563.31,451.11c15.88-18.57-11.98-42.82-28.21-25.1s11.89,44.19,28.21,25.1Z"/>
  <path d="M1068.46,399.23c30.73,26.85,19.81,79.11-18.63,92.11-48.38,16.36-90.85-35.62-64.94-79.55,17.55-29.75,57.7-35.16,83.57-12.55ZM1028.56,420.53c-20.51,2.81-20.25,34-.56,36.86,29.54,4.29,29.32-40.8.56-36.86Z"/>
  <path d="M1193.36,482.54c-19.71,17.17-61.53,13.22-82.83.42-1.94-1.17-5.36-2.79-5.1-5.36.13-1.34,9.14-16.21,10.64-18.56.62-.96,2.91-4.54,3.68-4.78,2.84-.87,6.84,2.53,9.54,3.76,9.87,4.51,19.74,8.29,30.88,7.39,3.68-.3,14.64-2.33,9.88-8.17-3.04-3.73-27.78-6.22-34.25-7.98-14.55-3.98-27.09-12.25-28.27-28.6-2.85-39.46,54.86-39.48,80.16-28.34,3.87,1.71,12.76,5.05,11.19,9.89-.87,2.67-7.57,13.67-9.47,16.44-4.66,6.82-5.04,3.4-10.56.51-7.62-3.99-16.11-6.68-24.87-6.09-7.41.5-15.55,6.26-4.91,9.4,13.91,4.11,28.2,1.88,41.75,10.06,18.16,10.96,17.83,36.68,2.53,50.01Z"/>
  <path d="M839.33,389.02c.76.76,1.31,2.9,1.31,4.04l-.18,95.58c-.8,1.96-1.41,2.45-3.5,2.67-7.42.8-23.46.67-31.01.02-5.48-.47-3.39-3.56-3.61-7.03-1.69-26.25-1.97-59.84-.61-86.17.08-1.58.55-7.63.96-8.58.54-1.26,3.62-1.73,4.95-1.84,6.85-.57,21.5-.74,28.19,0,.94.1,2.87.68,3.49,1.3Z"/>
  <path d="M1111.85,345.15c14.87,16.89-3.32,45.49-22.5,49.27-1.44-1.2-4.1-4.59-3.81-6.38.2-1.28,8.51-6.15,7.36-9.87-19.41-1.94-26.9-23.98-10.65-36.26,8.9-6.72,22.31-5.04,29.6,3.24Z"/>
  <path d="M805.93,344.63c16.89-20.22,49.29,3.94,34.01,26.4-16.55,24.32-53.79-2.73-34.01-26.4Z"/>
</svg>