<?xml version="1.0" encoding="UTF-8"?>
<svg id="hackajob" xmlns="http://www.w3.org/2000/svg" viewBox="0 0 1677.59 858.41">
  <path d="M1050.2,306.13v64.8c38.18-36.94,103.11-21.85,114.31,32.35,15.08,73-59.03,116.67-114.3,68.58v16.2h-24.99v-181.93h24.98ZM1093.68,373.7c-55.04,2.19-56.57,86.52-7.59,94.12,70.14,10.88,71.36-96.65,7.59-94.12Z"/>
  <path d="M349.63,488.06l1.24-16.19-11.32,9.25c-132.42,60.34-145.8-166.62-7.79-124.14l19.11,12.69-1.24-14.95h26.22c.33.91-1.25,1.49-1.25,1.87v129.6c0,.38,1.58.96,1.25,1.87h-26.22ZM303.21,373.71c-56.73,1.7-57.52,89.06-5.39,94.39,67.75,6.94,67.52-96.26,5.39-94.39Z"/>
  <path d="M765.48,488.06l1.24-16.19c-.87-1.04-10.07,8.41-11.31,9.26-31.55,21.53-81.54,9.74-98.42-25-29.97-61.7,25.99-126.5,90.62-99.15l19.11,12.69-1.24-14.95h24.98v133.33h-24.98ZM719.06,373.71c-60.71,1.82-58.32,101.9,8.34,94.42,52.71-5.92,49.98-96.16-8.34-94.42Z"/>
  <path d="M121.11,306.13v46.73l1.87,1.87h93.03c.33.91-1.25,1.49-1.25,1.87v129.6c0,.38,1.58.96,1.25,1.87h-26.22v-109.66h-66.81l-1.87,1.87v107.79h-24.98v-181.93h24.98Z"/>
  <path d="M926.31,351.35c99.73-10.12,108.39,134.99,13.36,140.43-93.01,5.32-101.94-131.44-13.36-140.43ZM933.85,373.71c-56.84,1.71-57.35,89.08-5.39,94.39,68.86,7.04,68.3-96.29,5.39-94.39Z"/>
  <path d="M570.67,306.13v83.49c22.71,2.84,48.47-10.97,51.2-34.89h26.22c-3.53,37.09-39.7,60.14-75.37,57.5-2.26.73-3.9,5.52-.21,6.05,21.33,3.1,37.03,2.62,54.37,18.06,15.1,13.45,20.37,32.27,22.46,51.73h-26.22c-1.78-29.85-20.09-46.89-49.9-46.84-1.46,0-1.62.09-2.55,1.36v45.48h-24.98v-181.93h24.98Z"/>
  <path d="M528.21,403.32h-25.6c-16.15-45.21-79.49-35.4-83.1,11.78-4.24,55.42,60.74,75.12,83.1,24.35h25.6c-19.84,83.43-142.5,61.36-134.85-25.53,6.82-77.45,119.51-86.59,134.85-10.61Z"/>
  <polygon points="846.65 354.72 846.65 537.9 790.45 537.9 790.45 514.23 820.42 514.23 820.42 354.72 846.65 354.72"/>
  <path d="M830.1,298.94c22.86-3.61,25.7,26.85,10.37,31.55-26.17,8.03-32.3-28.09-10.37-31.55Z"/>
</svg>