<?xml version="1.0" encoding="UTF-8"?>
<svg id="Mitratech" xmlns="http://www.w3.org/2000/svg" viewBox="0 0 1677.59 858.41">
  <polygon points="121.25 338.49 156.27 397.05 194.38 338.49 217.5 338.49 217.5 465.59 195 465.59 195 378.36 158.85 433.64 155.68 434.48 118.75 378.36 118.75 465.59 96.25 465.59 96.25 338.49 121.25 338.49"/>
  <path d="M500.63,338.49c44.15,5.24,51.3,66.81,8.12,78.51l16.06,24.57-8.58,24.02c-1.59,1.61-5.23-4.73-6.01-5.84-8.73-12.49-16.36-25.8-25.85-37.77h-25.62v43.61h-22.5v-127.1c20.32,1.75,44.53-2.36,64.38,0ZM458.75,400.79h36.88c.95,0,7.65-2.7,9.01-3.47,11.17-6.37,12.75-24.93,2.24-32.67-2.36-1.74-11.31-4.98-13.76-4.98h-34.38v41.12Z"/>
  <path d="M1090,338.49v52.34h57.5c.33-.91-1.25-1.49-1.25-1.87v-50.47h23.75v127.1h-23.75v-52.34h-56.25v52.34h-23.75v-127.1h23.75Z"/>
  <polygon points="898.75 338.49 898.75 359.67 830 359.67 830 390.82 891.25 390.82 891.25 412.01 830 412.01 830 444.41 900 444.41 900 465.59 807.5 465.59 807.5 338.49 898.75 338.49"/>
  <path d="M1036.07,354.85c1.69,2.91-11.55,15.68-14.37,18.44-7.61-6.02-16.32-13.07-26.4-14.54-63.13-9.19-63.08,96.63,1.28,86.6,10.71-1.67,17.53-9.47,26.37-14.52l13.76,12.26c1.62.32.78,1.67.2,2.6-5.08,8.04-23.82,18.43-33.1,20.59-56.12,13.05-97.13-43.78-73.22-94.17,16.81-35.44,60.42-46.16,93.54-25.89,1.52.93,11.57,8.01,11.94,8.64Z"/>
  <polygon points="547.5 465.59 603.08 337.15 624.83 337.41 678.75 465.59 655 465.59 613.13 365.89 571.25 465.59 547.5 465.59"/>
  <path d="M407.5,338.49v22.43h-38.75v104.67h-23.75v-102.8c0-.38,1.58-.96,1.25-1.87h-40v-22.43h101.25Z"/>
  <path d="M778.75,338.49v22.43h-38.75v104.67h-23.75v-102.8c0-.38,1.58-.96,1.25-1.87h-40v-22.43h101.25Z"/>
  <rect x="256.25" y="338.49" width="22.5" height="127.1"/>
</svg>