<?xml version="1.0" encoding="UTF-8"?>
<svg id="Veryable" xmlns="http://www.w3.org/2000/svg" viewBox="0 0 1677.59 858.41">
  <path d="M832.13,342.85l69.45.04c24.63,6.31,38.55,32.81,26.95,56.19-2.8,5.64-7.9,9.84-11.11,15.19l.65,1.87c19.94,12.88,25.16,38.75,12.95,58.95-19.11,31.61-65.95,17.78-96.72,20.86-5,.04-5.27-4.22-5.61-8.11-3.95-44.45,3.12-94.62,0-139.68l3.43-5.3ZM841.25,355.06v51.71l1.88,1.87h53.75c.55,0,6.2-2.11,7.37-2.63,18.33-8.05,21.19-33.52,5.13-45.97-1.08-.83-8.24-4.99-8.75-4.99h-59.38ZM841.25,421.11v60.44l1.88,1.87h53.75c1.69,0,11.56-3.94,13.55-5.19,15.63-9.82,19.59-32.51,7.07-46.52-3.06-3.43-13.76-10.6-18.12-10.6h-58.12Z"/>
  <path d="M511.87,436.06l51.93,51.79-2.82,7.74c-7.37,2.07-6.31-.7-9.67-4.12-14.41-14.65-29.01-29.49-44.44-42.95h-46.25l-1.88,1.87v41.12c0,.25-2.54,3.96-2.75,4.09-4.52,2.69-10.15-3.02-9.78-7.8,2.86-44.39-3.71-93.3-.02-137.15.58-6.94,1.16-7.52,8.12-8.1,17.59-1.47,60.75-2.14,75.31,6.02,24.65,13.81,32.91,46.01,22.22,71.27-2.58,6.09-14.72,26.66-21.96,16.92-4.03-5.41,8.35-16.4,10.97-22.89,7.49-18.61,1.34-42.25-15.97-53.1-1.77-1.11-10.58-5.71-11.77-5.71h-52.5l-1.88,1.87v77.26l1.88,1.87h51.25Z"/>
  <path d="M1167.5,342.6l.04,10.36c-.25.82-2.82,2.1-3.17,2.1h-78.75l-1.88,1.87v43.61l1.88,1.87h57.5c5.3,0,6.17,12.46,0,12.46h-58.13c-.58,2.28-1.12,4.39-1.31,6.79-1.02,12.93-1.65,43.97,0,56.2.22,1.65,1.6,5.55,3.19,5.55h80.63v12.46h-93.75c-1.01-3.4-2.21-5.51-2.57-9.28-4.06-42.99,3.22-92.28.02-135.94-.37-2.75,1.3-8.05,4.43-8.05h91.88Z"/>
  <path d="M797.25,495.6c-1.28.73-3.71.5-5.11.03-6.33-2.11-14.04-34.22-19.65-40.24l-71.64-.68-18.58,40.91c-8.65,1.76-9.48-3.98-7.89-10.98,2.81-12.36,14.74-36.53,20.05-49.78,11.61-29.01,24.21-57.67,35.34-86.89,2.88-5.67,8.53-8.09,12.57-2.08s10.09,24,13.26,31.64c15.04,36.3,28.98,73.07,44.18,109.31,1.18,1.84-1.26,8.04-2.52,8.75ZM708.12,442.29h57.5l1.38-2.58c-3.98-9.44-7.57-19.04-11.42-28.53-4.88-12.03-10.95-29.75-16.78-40.6-.76-1.42-.95-3.37-3.17-3.07l-29.18,70.72c-.73,1.43.44,3.7,1.67,4.06Z"/>
  <path d="M336.25,414.88c-.58,2.28-1.12,4.39-1.31,6.79-1.02,12.93-1.65,43.97,0,56.2.22,1.65,1.6,5.55,3.19,5.55h80c4.34,0,3.04,9.73.62,12.46h-92.5l-2.59-8.02.71-142.77,4.95-2.54,87.52.09,3.27,1.71c3.5,2.57-1.04,10.72-3.24,10.72h-80l-1.88,1.87v43.61l1.88,1.87h58.75c4.42,0,5.5,12.46-1.25,12.46h-58.12Z"/>
  <path d="M246.55,495.53l-143.78-143.21-.09-10.77c3.76-2.13,6.93-1.4,9.85,1.66l136.83,136.17,53.7-52.09c6.85-3.97,13.71,1.12,9.51,8.23l-62.03,60.36-3.98-.34Z"/>
  <path d="M580.89,344.23l43.61,61.88,3.54-2.54,40.18-58.38c11.62-6.28,13.89.62,8.07,10.53-12.77,21.71-31.12,42.46-44.48,64.07-2.79,21.74,1.82,46.66-.52,68.01-.19,1.73-1.94,7.76-3.38,8.11l-6.45-.26c-.78-2.18-2.31-4.42-2.63-6.71-2.82-20.33,2.17-46.02-.34-66.95l-47.93-70.62c-2.69-7.79,3.94-11.2,10.33-7.15Z"/>
  <path d="M1051.25,495.87h-85c-1.01-3.4-2.21-5.51-2.57-9.28-4.1-43.35,3.2-93.12.07-137.16,1.18-10.96,12.5-6.34,12.5-3.72v135.83l1.88,1.87h72.5c4.34,0,3.04,9.74.62,12.46Z"/>
  <path d="M460.99,276.84c4.48,2.57,1.97,7.94-.34,10.96-10.74,14.04-29.78,27-41.2,41.16-5.5,3.99-13.54-2.41-9.51-8.23l43.12-42.99c1.78-1.35,6.08-1.96,7.93-.9Z"/>
</svg>